<svg width="24" height="24" viewBox="0 0 24 24" fill="none" xmlns="http://www.w3.org/2000/svg">
<path fill-rule="evenodd" clip-rule="evenodd" d="M7.77811 3.32903H18.3965V1.37012H7.77811V3.32903ZM16.364 15.9886V15.973L8.61609 8.61626C8.62027 8.62341 8.62472 8.63022 8.62915 8.63701C8.63309 8.64304 8.63701 8.64904 8.64072 8.65524L4.42461 4.65166L3.08472 5.92362L9.81072 12.3104V22.6297H16.364V18.5326L19.5759 21.5823L20.9155 20.3104L16.364 15.9886ZM16.364 10.0749V13.429L7.78998 5.28785H18.3895C18.39 5.31101 18.3915 5.33388 18.393 5.35674C18.3948 5.38567 18.3967 5.41459 18.3967 5.44407C18.3967 7.32502 17.6 8.99608 16.364 10.0749Z" fill="white" fill-opacity="0.54"/>
</svg>
