<svg width="20" height="16" viewBox="0 0 20 16" fill="none" xmlns="http://www.w3.org/2000/svg">
<path d="M7.79907 15.419L1.83063 9.35666C1.08965 8.60401 1.08965 7.39603 1.83063 6.64338L7.79907 0.580983C9.01281 -0.651888 11.1108 0.207575 11.1108 1.93763V14.0624C11.1108 15.7924 9.01285 16.6519 7.79907 15.419Z" fill="#1C1C1C"/>
<path d="M4.68062 12.2758H1.13596C0.511182 12.2758 0 11.7646 0 11.1398V4.86024C0 4.23546 0.511182 3.72428 1.13596 3.72428H4.68066L4.68062 12.2758Z" fill="#1C1C1C"/>
<path d="M14.0829 12.6827C13.9118 12.6827 13.7445 12.5979 13.646 12.4428C13.4931 12.2018 13.5644 11.8824 13.8054 11.7294C14.8263 11.0813 15.555 9.9747 15.7548 8.7692C16.0305 7.1051 15.2539 5.36672 13.8224 4.44344C13.5825 4.28871 13.5135 3.96886 13.6682 3.72897C13.8228 3.48904 14.1427 3.41993 14.3827 3.57475C16.1554 4.71808 17.1167 6.87349 16.7746 8.93813C16.5275 10.4292 15.6246 11.7989 14.3594 12.6021C14.2768 12.6548 14.1808 12.6827 14.0829 12.6827ZM16.0659 14.1077C17.753 13.0367 18.957 11.21 19.2865 9.22114C19.7427 6.46817 18.4607 3.594 16.0965 2.06925C15.8565 1.91443 15.5367 1.98354 15.382 2.22347C15.2273 2.46336 15.2963 2.78324 15.5362 2.93794C17.5592 4.24264 18.6564 6.69978 18.2667 9.0522C17.9845 10.7555 16.9546 12.3192 15.5118 13.2351C15.2708 13.388 15.1995 13.7074 15.3524 13.9485C15.3888 14.0058 15.4361 14.0554 15.4916 14.0945C15.5472 14.1335 15.6099 14.1612 15.6761 14.176C15.7424 14.1908 15.8109 14.1924 15.8778 14.1807C15.9447 14.169 16.0086 14.1442 16.0659 14.1077ZM12.9206 10.5637C13.6248 10.1165 14.1075 9.38451 14.2449 8.55526C14.4326 7.42242 13.9057 6.24011 12.9337 5.61328C12.6939 5.45859 12.3739 5.52761 12.2193 5.7675C12.0645 6.0074 12.1335 6.32728 12.3735 6.48202C13.0041 6.88875 13.3464 7.65403 13.2251 8.38628C13.1371 8.91782 12.8161 9.40553 12.3665 9.69098C12.1255 9.84398 12.0542 10.1634 12.2072 10.4044C12.2538 10.478 12.3184 10.5386 12.3947 10.5805C12.4711 10.6225 12.5569 10.6444 12.644 10.6443C12.742 10.6443 12.8379 10.6163 12.9206 10.5637Z" fill="#1C1C1C"/>
</svg>
