<svg width="16" height="16" viewBox="0 0 16 16" fill="none" xmlns="http://www.w3.org/2000/svg">
<path d="M8 10C8.53043 10 9.03914 9.78929 9.41421 9.41421C9.78929 9.03914 10 8.53043 10 8C10 7.46957 9.78929 6.96086 9.41421 6.58579C9.03914 6.21071 8.53043 6 8 6C7.46957 6 6.96086 6.21071 6.58579 6.58579C6.21071 6.96086 6 7.46957 6 8C6 8.53043 6.21071 9.03914 6.58579 9.41421C6.96086 9.78929 7.46957 10 8 10ZM8 12C6.93913 12 5.92172 11.5786 5.17157 10.8284C4.42143 10.0783 4 9.06087 4 8C4 6.93913 4.42143 5.92172 5.17157 5.17157C5.92172 4.42143 6.93913 4 8 4C9.06087 4 10.0783 4.42143 10.8284 5.17157C11.5786 5.92172 12 6.93913 12 8C12 9.06087 11.5786 10.0783 10.8284 10.8284C10.0783 11.5786 9.06087 12 8 12ZM14 7H15C15.2652 7 15.5196 7.10536 15.7071 7.29289C15.8946 7.48043 16 7.73478 16 8C16 8.26522 15.8946 8.51957 15.7071 8.70711C15.5196 8.89464 15.2652 9 15 9H14C13.7348 9 13.4804 8.89464 13.2929 8.70711C13.1054 8.51957 13 8.26522 13 8C13 7.73478 13.1054 7.48043 13.2929 7.29289C13.4804 7.10536 13.7348 7 14 7ZM8 13C8.26522 13 8.51957 13.1054 8.70711 13.2929C8.89464 13.4804 9 13.7348 9 14V15C9 15.2652 8.89464 15.5196 8.70711 15.7071C8.51957 15.8946 8.26522 16 8 16C7.73478 16 7.48043 15.8946 7.29289 15.7071C7.10536 15.5196 7 15.2652 7 15V14C7 13.7348 7.10536 13.4804 7.29289 13.2929C7.48043 13.1054 7.73478 13 8 13ZM8 0C8.26522 0 8.51957 0.105357 8.70711 0.292893C8.89464 0.48043 9 0.734784 9 1V2C9 2.26522 8.89464 2.51957 8.70711 2.70711C8.51957 2.89464 8.26522 3 8 3C7.73478 3 7.48043 2.89464 7.29289 2.70711C7.10536 2.51957 7 2.26522 7 2V1C7 0.734784 7.10536 0.48043 7.29289 0.292893C7.48043 0.105357 7.73478 0 8 0ZM1 7H2C2.26522 7 2.51957 7.10536 2.70711 7.29289C2.89464 7.48043 3 7.73478 3 8C3 8.26522 2.89464 8.51957 2.70711 8.70711C2.51957 8.89464 2.26522 9 2 9H1C0.734784 9 0.48043 8.89464 0.292893 8.70711C0.105357 8.51957 0 8.26522 0 8C0 7.73478 0.105357 7.48043 0.292893 7.29289C0.48043 7.10536 0.734784 7 1 7ZM12.95 11.536L13.657 12.243C13.7525 12.3352 13.8287 12.4456 13.8811 12.5676C13.9335 12.6896 13.9611 12.8208 13.9622 12.9536C13.9634 13.0864 13.9381 13.2181 13.8878 13.341C13.8375 13.4639 13.7633 13.5755 13.6694 13.6694C13.5755 13.7633 13.4639 13.8375 13.341 13.8878C13.2181 13.9381 13.0864 13.9634 12.9536 13.9622C12.8208 13.9611 12.6896 13.9335 12.5676 13.8811C12.4456 13.8287 12.3352 13.7525 12.243 13.657L11.536 12.95C11.3538 12.7614 11.253 12.5088 11.2553 12.2466C11.2576 11.9844 11.3628 11.7336 11.5482 11.5482C11.7336 11.3628 11.9844 11.2576 12.2466 11.2553C12.5088 11.253 12.7614 11.3538 12.95 11.536ZM4.464 11.536C4.65147 11.7235 4.75679 11.9778 4.75679 12.243C4.75679 12.5082 4.65147 12.7625 4.464 12.95L3.757 13.657C3.5684 13.8392 3.3158 13.94 3.0536 13.9377C2.7914 13.9354 2.54059 13.8302 2.35518 13.6448C2.16977 13.4594 2.0646 13.2086 2.06233 12.9464C2.06005 12.6842 2.16084 12.4316 2.343 12.243L3.05 11.536C3.23753 11.3485 3.49184 11.2432 3.757 11.2432C4.02216 11.2432 4.27647 11.3485 4.464 11.536ZM13.657 2.343C13.8445 2.53053 13.9498 2.78484 13.9498 3.05C13.9498 3.31516 13.8445 3.56947 13.657 3.757L12.95 4.464C12.7614 4.64616 12.5088 4.74695 12.2466 4.74467C11.9844 4.7424 11.7336 4.63723 11.5482 4.45182C11.3628 4.26641 11.2576 4.0156 11.2553 3.7534C11.253 3.4912 11.3538 3.2386 11.536 3.05L12.243 2.343C12.4305 2.15553 12.6848 2.05021 12.95 2.05021C13.2152 2.05021 13.4695 2.15553 13.657 2.343ZM3.757 2.343L4.464 3.05C4.55951 3.14225 4.63569 3.25259 4.6881 3.3746C4.74051 3.4966 4.7681 3.62782 4.76925 3.7606C4.7704 3.89338 4.7451 4.02506 4.69482 4.14795C4.64454 4.27085 4.57029 4.3825 4.47639 4.47639C4.3825 4.57029 4.27085 4.64454 4.14795 4.69482C4.02506 4.7451 3.89338 4.7704 3.7606 4.76925C3.62782 4.7681 3.4966 4.74051 3.3746 4.6881C3.25259 4.63569 3.14225 4.55951 3.05 4.464L2.343 3.757C2.16084 3.5684 2.06005 3.3158 2.06233 3.0536C2.0646 2.7914 2.16977 2.54059 2.35518 2.35518C2.54059 2.16977 2.7914 2.0646 3.0536 2.06233C3.3158 2.06005 3.5684 2.16084 3.757 2.343Z" fill="#1C1C1C"/>
</svg>
